<?xml version="1.0" encoding="utf-8"?>
<!-- Generator: Adobe Illustrator 26.2.1, SVG Export Plug-In . SVG Version: 6.00 Build 0)  -->
<svg version="1.1" id="Capa_1" xmlns="http://www.w3.org/2000/svg" xmlns:xlink="http://www.w3.org/1999/xlink" x="0px" y="0px"
	 viewBox="0 0 32 32" style="enable-background:new 0 0 32 32;" xml:space="preserve">
<style type="text/css">
	.st0{fill:#F7DAB2;}
	.st1{fill:#010001;}
	.st2{fill:#F5D2A3;}
	.st3{fill:#FFFFFF;}
	.st4{fill:#F5BD8B;}
	.st5{fill:#1E1C40;}
</style>
<g>
	<g>
		<path class="st0" d="M8.1,21.4c0,0.3-0.2,1.1-0.2,1.4c-0.1,0.8-0.2,1-0.2,1.9c0,1.2,1.2,2.8,2,3.7c0,0,5.9,5.3,12.7-0.6
			c0.8-0.7,1.4-1.6,1.6-2.7c0.3-1.2-0.1-2.4-0.2-3.6c0,0,0.8-0.6,0.8-0.6c0.7-0.8,1.9-2.9,0.6-3.7c-0.2-0.1-0.6-0.3-0.8-0.2
			c0,0-0.6,0.3-0.6,2.7L23.4,20c0,0,0-3.6,1.7-4.7c0,0,1.1-2.6-1.8-5.1c0,0-11.3-5-16.8,2.6c0,0,1.3,4.5,1.4,6.6L8,19.2
			c0,0,0.5-2.3-1.2-2.2c-1.5,0.1-0.5,3.2,0.1,4.4C7,21.5,7.3,22,7.6,22C8.2,22.2,8.1,21.6,8.1,21.4z"/>
		<path class="st1" d="M15.7,30.7c-0.8,0-1.5-0.1-2.2-0.3c-2.3-0.6-3.8-1.9-3.9-1.9c-0.5-0.5-2-2.3-2-3.7c0-0.6,0-0.9,0.1-1.3
			c0-0.2,0.1-0.4,0.1-0.6c0-0.1,0-0.3,0.1-0.5c0-0.1,0-0.1,0-0.2c-0.1,0-0.2,0.1-0.4,0c-0.3-0.1-0.7-0.6-0.8-0.8
			c-0.5-1-1.3-3.2-0.7-4.1c0.1-0.3,0.4-0.4,0.7-0.4c0.3,0,0.5,0,0.7,0.1c-0.4-2-1-4.2-1-4.2l0,0l0,0c1.3-1.7,3-3,5-3.6
			c1.6-0.5,3.5-0.7,5.6-0.5c3.5,0.3,6.3,1.5,6.4,1.6l0,0c3,2.5,1.9,5.2,1.8,5.2l0,0l0,0c-1.4,1-1.7,3.7-1.7,4.4l0.2-0.2
			c0-2.4,0.6-2.7,0.7-2.7c0.3-0.1,0.8,0.2,0.9,0.3c0.3,0.2,0.6,0.5,0.6,0.9c0.2,1-0.6,2.3-1.2,2.9c0,0-0.5,0.5-0.8,0.6
			c0,0.3,0.1,0.6,0.1,0.8c0.1,0.9,0.3,1.8,0.1,2.7c-0.2,1-0.8,2-1.7,2.7C20,30,17.6,30.7,15.7,30.7z M8.1,21.9c0,0.1,0,0.3-0.1,0.5
			C8,22.5,8,22.7,8,22.8c0,0.3-0.1,0.5-0.1,0.6c-0.1,0.4-0.1,0.6-0.1,1.3c0,1.1,1,2.6,2,3.6c0,0,1.5,1.3,3.8,1.9
			c2.1,0.5,5.3,0.5,8.8-2.5c0.8-0.7,1.4-1.6,1.6-2.6c0.2-0.9,0.1-1.7-0.1-2.7c0-0.3-0.1-0.6-0.1-0.9v0c0,0,0,0,0,0l0.1,0l0-0.1
			c0,0-0.1,0-0.1,0c0.1,0,0.7-0.5,0.8-0.6c0.5-0.6,1.3-1.8,1.1-2.8c-0.1-0.3-0.2-0.6-0.5-0.8c-0.3-0.2-0.6-0.3-0.7-0.2
			c0,0-0.6,0.3-0.6,2.6v0l-0.6,0.4V20c0-0.1,0-3.6,1.7-4.8c0.1-0.3,0.9-2.6-1.8-4.9c-0.2-0.1-3-1.3-6.3-1.5c-3.2-0.3-7.6,0.2-10.4,4
			c0.1,0.3,0.7,2.4,1.1,4.3c0,0,0.1,0.1,0.1,0.1c0.6,0.7,0.3,1.9,0.3,2l0,0l-0.2,0.4l0-0.3c0-0.6-0.2-1.3-0.3-2.1
			C7.3,17.1,7,17,6.8,17c-0.3,0-0.4,0.1-0.6,0.3c-0.5,0.8,0.3,3.1,0.7,4C7,21.5,7.4,21.9,7.6,22c0.1,0,0.3,0,0.3,0
			c0,0,0.1-0.1,0.1-0.1c0-0.2,0-0.3,0.1-0.4c0,0,0,0,0,0l0.2,0c0,0,0,0,0,0c0,0,0,0,0,0.1C8.2,21.6,8.2,21.7,8.1,21.9z M7.7,17.5
			c0.1,0.5,0.2,1,0.2,1.4C8,18.5,8,17.9,7.7,17.5z"/>
	</g>
	<path d="M14.5,16.8c0.6,1.2,0.8,2.8-0.1,3.9c-0.1,0.2-0.3,0.3-0.4,0.4c0.1-0.1,0.3-0.3,0.4-0.4C15.1,19.5,14.9,18,14.5,16.8
		L14.5,16.8z"/>
	<path d="M12.9,21.7c-0.7,0.9,0,0.9,0.8,0.8c0.4,0,0.7,0.2,1.1,0.3c0.3,0.2,0.6,0.3,0.9,0.6c-0.6-0.3-1.3-0.6-2-0.7
		c-0.1,0-0.3,0-0.5,0C12.4,22.7,12.4,22.2,12.9,21.7L12.9,21.7z"/>
	<path d="M12.2,17c0.9,0.2,2,0.9,1.6,2c-0.1,0.3-0.3,0.6-0.5,0.8c0-0.1,0.1-0.1,0.1-0.2c0.1-0.2,0.2-0.3,0.3-0.5
		C14.2,18,13.1,17.3,12.2,17L12.2,17z"/>
	<path d="M6.7,19.5c-0.1-1,0.2-1.5,0.7-0.3c0,0,0,0,0,0l0,0c-0.2,0.4-0.2,0.9,0,1.3c0,0,0.1,0.2,0.1,0.2c0,0,0.1,0.2,0.1,0.2
		c0,0,0.1,0.1,0.1,0.2c0.1,0.1,0.1,0.2,0.2,0.2c-0.1-0.1-0.2-0.2-0.3-0.3c0,0,0-0.1,0-0.1l0-0.1c-0.3-0.5-0.4-1.2-0.2-1.8
		c0,0,0,0.1,0,0.1C7.2,19,7.1,18.8,7,18.6c0,0,0,0-0.1,0c-0.1,0-0.1,0.1-0.1,0.2C6.8,19,6.7,19.2,6.7,19.5L6.7,19.5z"/>
	<path d="M9.3,18.2c-0.5,0.2-1,0.6-0.4,1c0.1,0.1,0.3,0.2,0.4,0.3c-0.2-0.1-0.3-0.1-0.5-0.2C8.2,18.8,8.7,18.3,9.3,18.2L9.3,18.2z"
		/>
	<path d="M8.2,16c0.4-0.3,0.7-0.7,1.1-1c0.5,0,0.9,0,1.4,0c0.9,0.1,1.7,0.2,2.6,0.4c0.4,0.1,0.7,0.2,1.1,0.4c0,0,0.1,0.1,0.1,0.1
		c-0.4-0.1-0.8-0.2-1.3-0.2c-1.2-0.1-2.6-0.3-3.8-0.4c0,0,0.1,0,0.1,0C9.1,15.5,8.7,15.8,8.2,16L8.2,16z"/>
	<path class="st2" d="M24.1,17.7c0,0,0.7,0.5,0.4,1.1c0,0,0.5,1.6-0.6,2c0,0-0.1,0.4,0.1,0.5c0,0,2.3-1.9,1.6-3.8
		C25.6,17.5,24.2,16.5,24.1,17.7z"/>
	<path d="M24.4,17.8c0.3-0.1,0.6,0.2,0.6,0.5c0,0.1,0,0.3-0.1,0.4c-0.1,0.1-0.1,0.2-0.2,0.3c0-0.1,0-0.1,0.1-0.2
		C24.8,18.5,24.9,18.1,24.4,17.8L24.4,17.8z"/>
	<path d="M24.4,19.5c0,0.1,0,0.1,0,0.2c0,0.2,0.1,0.4,0.1,0.6c-0.1,0.2-0.3,0.6-0.5,0.5c0,0-0.1,0-0.1-0.1c0.1,0,0.1,0,0.2,0
		c0.1-0.1,0.2-0.3,0.3-0.5c0,0,0,0,0,0C24.3,20.1,24.3,19.8,24.4,19.5C24.4,19.5,24.4,19.5,24.4,19.5L24.4,19.5z"/>
	<path d="M23.8,21.7c-0.2-0.9-0.2-1.8,0.1-2.6c0,0.1,0,0.2,0,0.3C23.7,20.2,23.7,20.9,23.8,21.7L23.8,21.7z"/>
	<circle class="st1" cx="11.5" cy="18.4" r="0.9"/>
	<path class="st3" d="M12.2,18.6c0,0.2-0.1,0.3-0.3,0.3c-0.2,0-0.3-0.1-0.3-0.3c0-0.2,0.1-0.3,0.3-0.3
		C12.1,18.3,12.2,18.4,12.2,18.6z"/>
	<path class="st2" d="M7.6,12.8c0,0,0,1,2.5,1.3c0,0,3.3-0.3,4,0.6c0,0,3.9,0.6,5.9-0.4c0,0,3.5-2.1,4.1,0.8l0.5-0.6l-0.8-2.7
		c0,0-5,0-5.5,0s-7.7-0.3-7.7-0.3l-2.4,1L7.6,12.8z"/>
	<path class="st2" d="M18.9,14.2c0,0-2.1,0.2-2.8,3.3c0,0,1.8,7.9-1,9.7c0,0,1.9,3.3,1.9,3.3c0,0,0.8-0.2,0.8-0.2
		c0.7-0.2,1.3-0.5,1.9-0.8c0.8-0.4,1.6-0.9,2.3-1.5c0.4-0.4,0.9-0.8,1.2-1.3c0.3-0.5,0.6-1.3,0.7-1.9c0.1-0.6,0-1.2-0.1-1.8
		c0-0.6-0.2-1.2-0.2-1.8c0,0,0.7-6.9,0.7-6.9l-2.1-0.9L18.9,14.2z"/>
	<path d="M17.2,16.9c-0.4,1.3-0.6,2.7,0.2,3.9c0.1,0.2,0.2,0.3,0.4,0.4c-0.2-0.1-0.3-0.2-0.4-0.4C16.4,19.8,16.6,18.1,17.2,16.9
		L17.2,16.9z"/>
	<path d="M18.7,21.7c0.6,0.5,0.5,1-0.3,1c-0.2,0-0.4,0-0.5,0c-0.7,0.1-1.3,0.4-2,0.7c0.3-0.2,0.6-0.4,0.9-0.6
		c0.3-0.2,0.7-0.3,1.1-0.3C18.7,22.6,19.4,22.6,18.7,21.7L18.7,21.7z"/>
	<path d="M9.9,22.5c0.3,0.5,0.7,0.9,1.2,1.3c0.5,0.4,1,0.6,1.5,0.9c1.2,0,2.8,0.1,4.1,0.2c0,0,1.4,0.1,1.4,0.1
		c0.8-0.1,3.8-0.6,3.8-1.6c0.1,1.1-3,1.6-3.8,1.7c-1.8-0.1-3.8-0.2-5.6-0.3C11.5,24.4,10.5,23.6,9.9,22.5L9.9,22.5z"/>
	<path d="M14.2,26.7c1.1-0.6,2.5-0.7,3.6-0.2c0.1,0.1,0.2,0.1,0.3,0.2c-0.1,0-0.2-0.1-0.4-0.1C16.6,26.2,15.4,26.3,14.2,26.7
		L14.2,26.7z"/>
	<path d="M22.3,18.1c0.4,0.2,1,0.8,0.5,1.1c-0.1,0.1-0.3,0.1-0.5,0.2c0.1-0.1,0.3-0.1,0.4-0.2C23.1,18.8,22.6,18.3,22.3,18.1
		L22.3,18.1z"/>
	<path d="M18.3,17.8c0.4-0.6,1.3-0.7,1.9-0.7c0.1,0,0.2,0,0.3,0c-0.2,0-0.4,0-0.6,0.1C19.4,17.3,18.7,17.4,18.3,17.8L18.3,17.8z"/>
	<ellipse transform="matrix(0.9891 -0.147 0.147 0.9891 -2.4875 3.2032)" class="st1" cx="20.4" cy="18.4" rx="0.9" ry="0.9"/>
	<circle class="st3" cx="20.1" cy="18.6" r="0.3"/>
	<path d="M24.4,18.6c0,0,2.7-6.9,1.2-8.3c0,0-7-8.1-7.9-7.8l-0.3,0.6c0,0-0.4-1.1-0.1-1.8c0,0-1.4,0.1-1.8,1.1l-0.2-1.1
		c0,0-1.5,1-1.6,1.6c0,0,0.2-1.4-0.6-0.5l-0.8,0.9c0,0-0.4-0.4-0.9,0.5c0,0-4.9,5.5-5.4,7.9C5.9,12,6,12.6,6,13c0,0.7,0,1.4,0.1,2.1
		c0.1,0.8,0.4,1.3,0.8,2c0.1,0.3,0.3,0.5,0.4,0.7c0,0.1,0.2,0.2,0.2,0.3c0-0.1-0.6-4.9,0.6-5.7c0,0,0.5-0.3,1.8,0.2
		c0,0,4.8,1.4,8,0.6c0,0,3.9-1.2,5.4-0.5c0,0,0.9,0.2,0.9,1L24,18.4l0,0.9L24.4,18.6z"/>
	<g>
		<line class="st0" x1="8.1" y1="22.2" x2="8.1" y2="20.5"/>
		<path class="st1" d="M8.1,22.2c-0.1-0.5-0.1-1.1,0-1.7C8.2,21.1,8.2,21.7,8.1,22.2L8.1,22.2z"/>
	</g>
	<path d="M15.1,27.9c0.3-0.3,1-0.3,1.4-0.1c0.2,0.2,0.3,0.4,0.5,0.6c0.1,0.2,0.4,0.4,0.6,0.5c0.5,0.3,1,0.5,1.6,0.5
		c0.6,0,1-0.1,1.5-0.4c0,0-4.1,3.1-9.3,0.3c0.2,0.1,0.5,0.1,0.6,0.1c0.5,0,1,0,1.4-0.1c0.4-0.1,0.8-0.3,1.1-0.6
		c0.1-0.1,0.3-0.3,0.4-0.4C14.9,28.3,14.9,28.1,15.1,27.9C15.1,27.9,15.1,27.9,15.1,27.9z"/>
	<path class="st4" d="M13.7,21.1c0,0.2-1.5,0.8-2.7,0.8s-2.4-0.6-2.4-0.8c0-0.2,1.1-0.1,2.4-0.1S13.7,20.9,13.7,21.1z"/>
	<path class="st4" d="M23.7,20.8c0,0.2,0,1.4-2.7,1c-1.4-0.2-2.5-0.4-2.5-0.6c0-0.2,1-0.1,2.5-0.1S23.7,20.6,23.7,20.8z"/>
	<ellipse transform="matrix(0.6929 -0.721 0.721 0.6929 -9.6866 11.9515)" class="st3" cx="9.2" cy="17.3" rx="0.5" ry="0.1"/>
	<ellipse transform="matrix(0.8244 -0.5661 0.5661 0.8244 -7.6861 13.966)" class="st3" cx="18.7" cy="19.4" rx="0" ry="0.9"/>
	<ellipse transform="matrix(0.8244 -0.5661 0.5661 0.8244 -7.7782 14.2693)" class="st3" cx="19.1" cy="19.7" rx="0.1" ry="0.3"/>
	<ellipse transform="matrix(0.6929 -0.721 0.721 0.6929 -9.7727 12.1781)" class="st3" cx="9.4" cy="17.6" rx="0.2" ry="0"/>
	<g>
		<line class="st0" x1="23.9" y1="21.9" x2="23.8" y2="20.3"/>
		<path class="st1" d="M23.9,21.9c-0.2-0.5-0.2-1.1-0.1-1.7C23.9,20.8,24,21.4,23.9,21.9L23.9,21.9z"/>
	</g>
	<path class="st5" d="M25.3,16.5c-0.2-0.3-0.6-0.2-0.9-0.2c-0.5,0-0.9-0.1-1.4-0.1c-0.9-0.1-1.8-0.1-2.7-0.2
		c-0.8-0.1-1.7-0.1-2.5,0.1c-0.6,0.2-1.2,0.6-1.9,0.6c-0.7-0.1-1.3-0.4-2-0.5c-0.9-0.2-1.8-0.2-2.7-0.2c-0.8,0-1.6,0.1-2.3,0.2
		c-0.7,0.1-1.4,0.1-2.1,0.3c-0.2,0.1-0.3,0.2-0.3,0.5c0,0.3-0.1,0.9,0.2,1.1c0.2,0.1,0.4,0.1,0.6,0.1c0,0,0.1,0,0.1,0
		c0,0,0,0.1,0,0.1c0.1,0.5,0.2,1,0.4,1.5C7.9,20.2,8,20.6,8.3,21c0.3,0.3,0.6,0.3,0.9,0.3c1.2,0,2.4,0,3.6,0c0.2,0,0.5,0,0.7-0.1
		c0.4-0.1,0.6-0.5,0.8-0.8c0.3-0.4,0.6-0.9,0.8-1.3c0.1-0.1,0.2-0.3,0.3-0.4c0.2-0.2,0.5-0.3,0.8-0.2c0.2,0.1,0.3,0.2,0.4,0.3
		c0.4,0.5,0.7,1.1,1.1,1.6c0.2,0.3,0.5,0.6,0.9,0.7c0.6,0.2,1.2,0.1,1.8,0.1c0.6,0,1.3,0,1.9,0c0.3,0,0.7,0,1-0.1
		c0.4-0.2,0.7-0.6,0.9-1c0.2-0.4,0.2-0.9,0.2-1.3c0-0.2,0.1-0.4,0.1-0.6c0.1-0.2,0-0.2,0.2-0.2c0.2-0.1,0.4,0,0.6-0.2
		c0.1-0.2,0.2-0.4,0.2-0.6C25.5,17,25.5,16.7,25.3,16.5z M14.2,19.2c-0.3,0.6-0.7,1.3-1.5,1.3c-1,0.1-2,0.1-3,0
		c-0.3,0-0.5,0-0.8-0.1c-0.4-0.2-0.6-0.7-0.8-1.2c-0.1-0.4-0.2-0.8-0.2-1.2c0-0.3,0-0.6,0.2-0.8c0.1-0.1,0.2-0.2,0.3-0.2
		c0.4-0.2,1-0.2,1.4-0.3c1.3-0.1,2.6-0.1,3.9,0.2c0.3,0.1,0.6,0.1,0.7,0.4c0.1,0.1,0.1,0.3,0.1,0.4C14.8,18.3,14.5,18.8,14.2,19.2z
		 M23.6,18.3c-0.1,0.6-0.2,1.2-0.5,1.8c-0.1,0.1-0.1,0.3-0.3,0.4c-0.4,0.4-1.2,0.2-1.7,0.2c-0.5,0-1.1,0-1.6,0c-0.3,0-0.6,0-0.8-0.1
		c-0.4-0.1-0.7-0.6-0.9-1c-0.2-0.5-0.5-1-0.6-1.5c-0.2-1,0.9-1.2,1.7-1.4c1.2-0.2,2.5-0.1,3.7,0.1c0.3,0,0.7,0.1,0.9,0.4
		C23.8,17.5,23.7,17.9,23.6,18.3z"/>
	<path d="M23.7,15.9c-0.4-0.2-0.9-0.4-1.3-0.7c0,0,0.1,0,0.1,0c-1.2,0.2-2.6,0.3-3.8,0.4c-0.4,0.1-0.8,0.1-1.3,0.2
		c0,0,0.1-0.1,0.1-0.1c0.3-0.2,0.7-0.3,1.1-0.4c0.8-0.2,1.7-0.3,2.6-0.4c0.5,0,0.9,0,1.4,0C23,15.2,23.4,15.5,23.7,15.9L23.7,15.9z"
		/>
</g>
</svg>
